<svg width="32" height="22" viewBox="0 0 32 22" fill="none" xmlns="http://www.w3.org/2000/svg">
<path d="M24.24 8L21.9733 1.76C21.5867 0.706667 20.5867 0 19.4667 0H16V2.66667H19.4667L21.4133 8H15L14.52 6.66667H16V4H9.33333V6.66667H11.6667L14.0933 13.3333H13.2C12.6133 10.36 10.12 8.16 7 8.01333C3.26667 7.82667 0 10.9333 0 14.6667C0 18.4 2.93333 21.3333 6.66667 21.3333C9.94667 21.3333 12.6 19.08 13.2 16H18.8C19.3867 18.9733 21.88 21.1733 25 21.32C28.7333 21.4933 32 18.4 32 14.6533C32 10.92 29.0667 7.98667 25.3333 7.98667H24.24V8ZM10.4267 16C9.89333 17.56 8.44 18.6667 6.66667 18.6667C4.42667 18.6667 2.66667 16.9067 2.66667 14.6667C2.66667 12.4267 4.42667 10.6667 6.66667 10.6667C8.44 10.6667 9.89333 11.7733 10.4267 13.3333H6.66667V16H10.4267ZM18.8 13.3333H16.9333L15.96 10.6667H20C19.4133 11.44 18.9867 12.3333 18.8 13.3333ZM25.3333 18.6667C23.0933 18.6667 21.3333 16.9067 21.3333 14.6667C21.3333 13.4267 21.88 12.36 22.7333 11.6267L24.0133 15.1467L26.52 14.24L25.2267 10.68C25.2667 10.68 25.3067 10.6667 25.3467 10.6667C27.5867 10.6667 29.3467 12.4267 29.3467 14.6667C29.3467 16.9067 27.5733 18.6667 25.3333 18.6667Z" fill="#1B3882"/>
</svg>
