<svg width="19" height="18" viewBox="0 0 19 18" fill="none" xmlns="http://www.w3.org/2000/svg">
<path d="M13.255 11.255H12.465L12.185 10.985C13.165 9.845 13.755 8.365 13.755 6.755C13.755 3.165 10.845 0.255005 7.255 0.255005C3.665 0.255005 0.754997 3.165 0.754997 6.755C0.754997 10.345 3.665 13.255 7.255 13.255C8.865 13.255 10.345 12.665 11.485 11.685L11.755 11.965V12.755L16.755 17.745L18.245 16.255L13.255 11.255ZM7.255 11.255C4.765 11.255 2.755 9.245 2.755 6.755C2.755 4.26501 4.765 2.255 7.255 2.255C9.745 2.255 11.755 4.26501 11.755 6.755C11.755 9.245 9.745 11.255 7.255 11.255Z" fill="white"/>
</svg>
