<svg width="35" height="35" viewBox="0 0 35 35" fill="none" xmlns="http://www.w3.org/2000/svg">
<path d="M20.9146 3.90244C21.9878 3.90244 22.8659 3.02439 22.8659 1.95122C22.8659 0.878049 21.9878 0 20.9146 0C19.8415 0 18.9634 0.878049 18.9634 1.95122C18.9634 3.02439 19.8415 3.90244 20.9146 3.90244ZM10.6707 10.2439C7.93903 10.2439 5.79269 12.3902 5.79269 15.122C5.79269 17.8537 7.93903 20 10.6707 20C13.4024 20 15.5488 17.8537 15.5488 15.122C15.5488 12.3902 13.4024 10.2439 10.6707 10.2439ZM10.6707 18.5366C8.81708 18.5366 7.2561 16.9756 7.2561 15.122C7.2561 13.2683 8.81708 11.7073 10.6707 11.7073C12.5244 11.7073 14.0854 13.2683 14.0854 15.122C14.0854 16.9756 12.5244 18.5366 10.6707 18.5366ZM16.3293 8.78049L18.6707 6.43902L19.4512 7.21951C20.7195 8.4878 22.378 9.26829 24.4268 9.26829V7.31707C22.9634 7.31707 21.7927 6.73171 20.9146 5.85366L19.061 4C18.5732 3.60976 18.0854 3.41463 17.5 3.41463C16.9146 3.41463 16.4268 3.60976 16.1341 4L13.4024 6.73171C13.0122 7.12195 12.8171 7.60976 12.8171 8.09756C12.8171 8.68293 13.0122 9.17073 13.4024 9.46341L16.5244 12.1951V17.0732H18.4756V11.0244L16.3293 8.78049ZM24.3293 10.2439C21.5976 10.2439 19.4512 12.3902 19.4512 15.122C19.4512 17.8537 21.5976 20 24.3293 20C27.061 20 29.2073 17.8537 29.2073 15.122C29.2073 12.3902 27.061 10.2439 24.3293 10.2439ZM24.3293 18.5366C22.4756 18.5366 20.9146 16.9756 20.9146 15.122C20.9146 13.2683 22.4756 11.7073 24.3293 11.7073C26.1829 11.7073 27.7439 13.2683 27.7439 15.122C27.7439 16.9756 26.1829 18.5366 24.3293 18.5366Z" fill="#3064E7"/>
<path d="M1.164 32V26.4H3.58C4.036 26.4 4.396 26.4733 4.66 26.62C4.924 26.764 5.112 26.952 5.224 27.184C5.336 27.4133 5.392 27.6533 5.392 27.904C5.392 28.1547 5.33733 28.384 5.228 28.592C5.11867 28.7973 4.94 28.956 4.692 29.068C4.89467 29.14 5.06133 29.244 5.192 29.38C5.32533 29.5133 5.42267 29.6653 5.484 29.836C5.548 30.004 5.58 30.1747 5.58 30.348C5.58 30.5453 5.54667 30.7427 5.48 30.94C5.416 31.1347 5.31067 31.312 5.164 31.472C5.01733 31.632 4.82267 31.76 4.58 31.856C4.34 31.952 4.044 32 3.692 32H1.164ZM2.2 31.028H3.76C3.96 31.028 4.116 30.9933 4.228 30.924C4.34267 30.8547 4.42267 30.768 4.468 30.664C4.516 30.5573 4.54 30.452 4.54 30.348C4.54 30.22 4.512 30.0987 4.456 29.984C4.40267 29.8667 4.30267 29.7707 4.156 29.696C4.012 29.6213 3.80267 29.584 3.528 29.584H2.2V31.028ZM2.2 28.652H3.452C3.756 28.652 3.98 28.5933 4.124 28.476C4.27067 28.356 4.344 28.1973 4.344 28C4.344 27.8987 4.32533 27.8 4.288 27.704C4.25067 27.6053 4.17867 27.524 4.072 27.46C3.96533 27.396 3.808 27.364 3.6 27.364H2.2V28.652ZM6.65544 32V27.912H7.65544V32H6.65544ZM7.15544 27.4C6.99544 27.4 6.85677 27.3427 6.73944 27.228C6.62477 27.1107 6.56744 26.972 6.56744 26.812C6.56744 26.652 6.62477 26.516 6.73944 26.404C6.8541 26.2893 6.99277 26.232 7.15544 26.232C7.32344 26.232 7.46344 26.288 7.57544 26.4C7.68744 26.512 7.74344 26.6493 7.74344 26.812C7.74344 26.9747 7.6861 27.1133 7.57144 27.228C7.45944 27.3427 7.32077 27.4 7.15544 27.4ZM8.91306 32V26.692L9.91306 26.224V29.076L11.0491 27.912H12.2331L11.0491 29.088L12.5531 32H11.4651L10.3171 29.8L9.91306 30.2V32H8.91306ZM14.8705 32.096C14.4785 32.096 14.1398 32.008 13.8545 31.832C13.5718 31.656 13.3532 31.408 13.1985 31.088C13.0465 30.7653 12.9705 30.3867 12.9705 29.952C12.9705 29.512 13.0478 29.132 13.2025 28.812C13.3598 28.492 13.5798 28.2467 13.8625 28.076C14.1478 27.9027 14.4838 27.816 14.8705 27.816C15.2012 27.816 15.5012 27.8853 15.7705 28.024C16.0398 28.1627 16.2545 28.376 16.4145 28.664C16.5745 28.9493 16.6545 29.3133 16.6545 29.756C16.6545 29.8253 16.6518 29.9107 16.6465 30.012C16.6438 30.1107 16.6372 30.2107 16.6265 30.312H13.9585C13.9692 30.4987 14.0118 30.6627 14.0865 30.804C14.1638 30.9427 14.2692 31.0507 14.4025 31.128C14.5358 31.2053 14.6932 31.244 14.8745 31.244C15.0692 31.244 15.2385 31.212 15.3825 31.148C15.5265 31.0813 15.6625 30.976 15.7905 30.832L16.3665 31.428C16.1905 31.628 15.9785 31.7893 15.7305 31.912C15.4825 32.0347 15.1958 32.096 14.8705 32.096ZM13.9625 29.532H15.6865C15.6732 29.3533 15.6332 29.2 15.5665 29.072C15.4998 28.9413 15.4065 28.8413 15.2865 28.772C15.1665 28.7027 15.0212 28.668 14.8505 28.668C14.6158 28.668 14.4158 28.74 14.2505 28.884C14.0852 29.028 13.9892 29.244 13.9625 29.532ZM17.6796 32V26.4H18.7156V28.62H21.0836V26.4H22.1196V32H21.0836V29.608H18.7156V32H17.6796ZM23.4133 32V27.912H24.4133V32H23.4133ZM23.9133 27.4C23.7533 27.4 23.6146 27.3427 23.4973 27.228C23.3826 27.1107 23.3253 26.972 23.3253 26.812C23.3253 26.652 23.3826 26.516 23.4973 26.404C23.6119 26.2893 23.7506 26.232 23.9133 26.232C24.0813 26.232 24.2213 26.288 24.3333 26.4C24.4453 26.512 24.5013 26.6493 24.5013 26.812C24.5013 26.9747 24.4439 27.1133 24.3293 27.228C24.2173 27.3427 24.0786 27.4 23.9133 27.4ZM25.6709 32V26.692L26.6709 26.224V29.076L27.8069 27.912H28.9909L27.8069 29.088L29.3109 32H28.2229L27.0749 29.8L26.6709 30.2V32H25.6709ZM31.6283 32.096C31.2363 32.096 30.8976 32.008 30.6123 31.832C30.3296 31.656 30.111 31.408 29.9563 31.088C29.8043 30.7653 29.7283 30.3867 29.7283 29.952C29.7283 29.512 29.8056 29.132 29.9603 28.812C30.1176 28.492 30.3376 28.2467 30.6203 28.076C30.9056 27.9027 31.2416 27.816 31.6283 27.816C31.959 27.816 32.259 27.8853 32.5283 28.024C32.7976 28.1627 33.0123 28.376 33.1723 28.664C33.3323 28.9493 33.4123 29.3133 33.4123 29.756C33.4123 29.8253 33.4096 29.9107 33.4043 30.012C33.4016 30.1107 33.395 30.2107 33.3843 30.312H30.7163C30.727 30.4987 30.7696 30.6627 30.8443 30.804C30.9216 30.9427 31.027 31.0507 31.1603 31.128C31.2936 31.2053 31.451 31.244 31.6323 31.244C31.827 31.244 31.9963 31.212 32.1403 31.148C32.2843 31.0813 32.4203 30.976 32.5483 30.832L33.1243 31.428C32.9483 31.628 32.7363 31.7893 32.4883 31.912C32.2403 32.0347 31.9536 32.096 31.6283 32.096ZM30.7203 29.532H32.4443C32.431 29.3533 32.391 29.2 32.3243 29.072C32.2576 28.9413 32.1643 28.8413 32.0443 28.772C31.9243 28.7027 31.779 28.668 31.6083 28.668C31.3736 28.668 31.1736 28.74 31.0083 28.884C30.843 29.028 30.747 29.244 30.7203 29.532Z" fill="#3064E7"/>
</svg>
