<svg width="67" height="55" viewBox="0 0 67 55" fill="none" xmlns="http://www.w3.org/2000/svg">
<path d="M38.622 5.85366C40.2317 5.85366 41.5488 4.53659 41.5488 2.92683C41.5488 1.31707 40.2317 0 38.622 0C37.0122 0 35.6951 1.31707 35.6951 2.92683C35.6951 4.53659 37.0122 5.85366 38.622 5.85366ZM23.2561 15.3659C19.1585 15.3659 15.939 18.5854 15.939 22.6829C15.939 26.7805 19.1585 30 23.2561 30C27.3537 30 30.5732 26.7805 30.5732 22.6829C30.5732 18.5854 27.3537 15.3659 23.2561 15.3659ZM23.2561 27.8049C20.4756 27.8049 18.1341 25.4634 18.1341 22.6829C18.1341 19.9024 20.4756 17.561 23.2561 17.561C26.0366 17.561 28.378 19.9024 28.378 22.6829C28.378 25.4634 26.0366 27.8049 23.2561 27.8049ZM31.7439 13.1707L35.2561 9.65854L36.4268 10.8293C38.3293 12.7317 40.8171 13.9024 43.8902 13.9024V10.9756C41.6951 10.9756 39.939 10.0976 38.622 8.78049L35.8415 6C35.1098 5.41463 34.378 5.12195 33.5 5.12195C32.622 5.12195 31.8902 5.41463 31.4512 6L27.3537 10.0976C26.7683 10.6829 26.4756 11.4146 26.4756 12.1463C26.4756 13.0244 26.7683 13.7561 27.3537 14.1951L32.0366 18.2927V25.6098H34.9634V16.5366L31.7439 13.1707ZM43.7439 15.3659C39.6463 15.3659 36.4268 18.5854 36.4268 22.6829C36.4268 26.7805 39.6463 30 43.7439 30C47.8415 30 51.061 26.7805 51.061 22.6829C51.061 18.5854 47.8415 15.3659 43.7439 15.3659ZM43.7439 27.8049C40.9634 27.8049 38.622 25.4634 38.622 22.6829C38.622 19.9024 40.9634 17.561 43.7439 17.561C46.5244 17.561 48.8659 19.9024 48.8659 22.6829C48.8659 25.4634 46.5244 27.8049 43.7439 27.8049Z" fill="#3064E7"/>
<path d="M1.328 49V37.8H6.16C7.072 37.8 7.792 37.9467 8.32 38.24C8.848 38.528 9.224 38.904 9.448 39.368C9.672 39.8267 9.784 40.3067 9.784 40.808C9.784 41.3093 9.67467 41.768 9.456 42.184C9.23733 42.5947 8.88 42.912 8.384 43.136C8.78933 43.28 9.12267 43.488 9.384 43.76C9.65067 44.0267 9.84533 44.3307 9.968 44.672C10.096 45.008 10.16 45.3493 10.16 45.696C10.16 46.0907 10.0933 46.4853 9.96 46.88C9.832 47.2693 9.62133 47.624 9.328 47.944C9.03467 48.264 8.64533 48.52 8.16 48.712C7.68 48.904 7.088 49 6.384 49H1.328ZM3.4 47.056H6.52C6.92 47.056 7.232 46.9867 7.456 46.848C7.68533 46.7093 7.84533 46.536 7.936 46.328C8.032 46.1147 8.08 45.904 8.08 45.696C8.08 45.44 8.024 45.1973 7.912 44.968C7.80533 44.7333 7.60533 44.5413 7.312 44.392C7.024 44.2427 6.60533 44.168 6.056 44.168H3.4V47.056ZM3.4 42.304H5.904C6.512 42.304 6.96 42.1867 7.248 41.952C7.54133 41.712 7.688 41.3947 7.688 41C7.688 40.7973 7.65067 40.6 7.576 40.408C7.50133 40.2107 7.35733 40.048 7.144 39.92C6.93067 39.792 6.616 39.728 6.2 39.728H3.4V42.304ZM12.3109 49V40.824H14.3109V49H12.3109ZM13.3109 39.8C12.9909 39.8 12.7135 39.6853 12.4789 39.456C12.2495 39.2213 12.1349 38.944 12.1349 38.624C12.1349 38.304 12.2495 38.032 12.4789 37.808C12.7082 37.5787 12.9855 37.464 13.3109 37.464C13.6469 37.464 13.9269 37.576 14.1509 37.8C14.3749 38.024 14.4869 38.2987 14.4869 38.624C14.4869 38.9493 14.3722 39.2267 14.1429 39.456C13.9189 39.6853 13.6415 39.8 13.3109 39.8ZM16.8261 49V38.384L18.8261 37.448V43.152L21.0981 40.824H23.4661L21.0981 43.176L24.1061 49H21.9301L19.6341 44.6L18.8261 45.4V49H16.8261ZM28.741 49.192C27.957 49.192 27.2797 49.016 26.709 48.664C26.1437 48.312 25.7063 47.816 25.397 47.176C25.093 46.5307 24.941 45.7733 24.941 44.904C24.941 44.024 25.0957 43.264 25.405 42.624C25.7197 41.984 26.1597 41.4933 26.725 41.152C27.2957 40.8053 27.9677 40.632 28.741 40.632C29.4023 40.632 30.0023 40.7707 30.541 41.048C31.0797 41.3253 31.509 41.752 31.829 42.328C32.149 42.8987 32.309 43.6267 32.309 44.512C32.309 44.6507 32.3037 44.8213 32.293 45.024C32.2877 45.2213 32.2743 45.4213 32.253 45.624H26.917C26.9383 45.9973 27.0237 46.3253 27.173 46.608C27.3277 46.8853 27.5383 47.1013 27.805 47.256C28.0717 47.4107 28.3863 47.488 28.749 47.488C29.1383 47.488 29.477 47.424 29.765 47.296C30.053 47.1627 30.325 46.952 30.581 46.664L31.733 47.856C31.381 48.256 30.957 48.5787 30.461 48.824C29.965 49.0693 29.3917 49.192 28.741 49.192ZM26.925 44.064H30.373C30.3463 43.7067 30.2663 43.4 30.133 43.144C29.9997 42.8827 29.813 42.6827 29.573 42.544C29.333 42.4053 29.0423 42.336 28.701 42.336C28.2317 42.336 27.8317 42.48 27.501 42.768C27.1703 43.056 26.9783 43.488 26.925 44.064ZM34.3593 49V37.8H36.4313V42.24H41.1673V37.8H43.2393V49H41.1673V44.216H36.4313V49H34.3593ZM45.8265 49V40.824H47.8265V49H45.8265ZM46.8265 39.8C46.5065 39.8 46.2292 39.6853 45.9945 39.456C45.7652 39.2213 45.6505 38.944 45.6505 38.624C45.6505 38.304 45.7652 38.032 45.9945 37.808C46.2238 37.5787 46.5012 37.464 46.8265 37.464C47.1625 37.464 47.4425 37.576 47.6665 37.8C47.8905 38.024 48.0025 38.2987 48.0025 38.624C48.0025 38.9493 47.8878 39.2267 47.6585 39.456C47.4345 39.6853 47.1572 39.8 46.8265 39.8ZM50.3418 49V38.384L52.3418 37.448V43.152L54.6138 40.824H56.9818L54.6138 43.176L57.6218 49H55.4458L53.1498 44.6L52.3418 45.4V49H50.3418ZM62.2566 49.192C61.4726 49.192 60.7953 49.016 60.2246 48.664C59.6593 48.312 59.222 47.816 58.9126 47.176C58.6086 46.5307 58.4566 45.7733 58.4566 44.904C58.4566 44.024 58.6113 43.264 58.9206 42.624C59.2353 41.984 59.6753 41.4933 60.2406 41.152C60.8113 40.8053 61.4833 40.632 62.2566 40.632C62.918 40.632 63.518 40.7707 64.0566 41.048C64.5953 41.3253 65.0246 41.752 65.3446 42.328C65.6646 42.8987 65.8246 43.6267 65.8246 44.512C65.8246 44.6507 65.8193 44.8213 65.8086 45.024C65.8033 45.2213 65.79 45.4213 65.7686 45.624H60.4326C60.454 45.9973 60.5393 46.3253 60.6886 46.608C60.8433 46.8853 61.054 47.1013 61.3206 47.256C61.5873 47.4107 61.902 47.488 62.2646 47.488C62.654 47.488 62.9926 47.424 63.2806 47.296C63.5686 47.1627 63.8406 46.952 64.0966 46.664L65.2486 47.856C64.8966 48.256 64.4726 48.5787 63.9766 48.824C63.4806 49.0693 62.9073 49.192 62.2566 49.192ZM60.4406 44.064H63.8886C63.862 43.7067 63.782 43.4 63.6486 43.144C63.5153 42.8827 63.3286 42.6827 63.0886 42.544C62.8486 42.4053 62.558 42.336 62.2166 42.336C61.7473 42.336 61.3473 42.48 61.0166 42.768C60.686 43.056 60.494 43.488 60.4406 44.064Z" fill="#3064E7"/>
</svg>
