<svg width="37" height="30" viewBox="0 0 37 30" fill="none" xmlns="http://www.w3.org/2000/svg">
<path d="M23.622 5.85366C25.2317 5.85366 26.5488 4.53659 26.5488 2.92683C26.5488 1.31707 25.2317 0 23.622 0C22.0122 0 20.6951 1.31707 20.6951 2.92683C20.6951 4.53659 22.0122 5.85366 23.622 5.85366ZM8.2561 15.3659C4.15854 15.3659 0.939024 18.5854 0.939024 22.6829C0.939024 26.7805 4.15854 30 8.2561 30C12.3537 30 15.5732 26.7805 15.5732 22.6829C15.5732 18.5854 12.3537 15.3659 8.2561 15.3659ZM8.2561 27.8049C5.47561 27.8049 3.13415 25.4634 3.13415 22.6829C3.13415 19.9024 5.47561 17.561 8.2561 17.561C11.0366 17.561 13.378 19.9024 13.378 22.6829C13.378 25.4634 11.0366 27.8049 8.2561 27.8049ZM16.7439 13.1707L20.2561 9.65854L21.4268 10.8293C23.3293 12.7317 25.8171 13.9024 28.8902 13.9024V10.9756C26.6951 10.9756 24.939 10.0976 23.622 8.78049L20.8415 6C20.1098 5.41463 19.378 5.12195 18.5 5.12195C17.622 5.12195 16.8902 5.41463 16.4512 6L12.3537 10.0976C11.7683 10.6829 11.4756 11.4146 11.4756 12.1463C11.4756 13.0244 11.7683 13.7561 12.3537 14.1951L17.0366 18.2927V25.6098H19.9634V16.5366L16.7439 13.1707ZM28.7439 15.3659C24.6463 15.3659 21.4268 18.5854 21.4268 22.6829C21.4268 26.7805 24.6463 30 28.7439 30C32.8415 30 36.061 26.7805 36.061 22.6829C36.061 18.5854 32.8415 15.3659 28.7439 15.3659ZM28.7439 27.8049C25.9634 27.8049 23.622 25.4634 23.622 22.6829C23.622 19.9024 25.9634 17.561 28.7439 17.561C31.5244 17.561 33.8659 19.9024 33.8659 22.6829C33.8659 25.4634 31.5244 27.8049 28.7439 27.8049Z" fill="#3064E7"/>
</svg>
