<svg width="101" height="100" viewBox="0 0 101 100" fill="none" xmlns="http://www.w3.org/2000/svg">
<path d="M26.5731 19.589L18.3539 11.4155L11.9155 17.8539L20.089 26.0274L26.5731 19.589ZM13.9703 45.4338H0.271694V54.5662H13.9703V45.4338ZM55.0662 0H45.9338V13.4703H55.0662V0ZM89.0845 17.8539L82.6461 11.4155L74.4726 19.589L80.911 26.0274L89.0845 17.8539ZM74.4269 80.411L82.6005 88.6301L89.0388 82.1918L80.8196 74.0183L74.4269 80.411ZM87.0297 45.4338V54.5662H100.728V45.4338H87.0297ZM50.5 22.6027C35.3858 22.6027 23.1027 34.8858 23.1027 50C23.1027 65.1142 35.3858 77.3973 50.5 77.3973C65.6142 77.3973 77.8973 65.1142 77.8973 50C77.8973 34.8858 65.6142 22.6027 50.5 22.6027ZM45.9338 100H55.0662V86.5297H45.9338V100ZM11.9155 82.1461L18.3539 88.5845L26.5274 80.3653L20.089 73.9269L11.9155 82.1461Z" fill="#3064E7"/>
</svg>
